<?xml version="1.0" encoding="UTF-8"?>
<svg id="Layer_1" xmlns="http://www.w3.org/2000/svg" viewBox="0 0 1080 1080">
  <defs>
    <style>
      .cls-1 {
        fill: #3a3a3a;
      }
    </style>
  </defs>
  <circle class="cls-1" cx="829.17" cy="236.22" r="83.61" transform="translate(75.82 655.5) rotate(-45)"/>
  <path class="cls-1" d="M445.47,319.81c32.53-.71,60.48-20,73.67-47.68,3.82-8.01,11.99-13.03,20.86-13.03h0c8.87,0,17.05,5.02,20.86,13.03,13.18,27.68,41.14,46.97,73.67,47.68,46.2,1.01,84.82-36.19,85.46-82.4.65-46.72-37.03-84.8-83.6-84.8-33.31,0-62.07,19.48-75.51,47.67-3.82,8.02-11.99,13.06-20.87,13.06h0c-8.88,0-17.05-5.04-20.87-13.06-13.44-28.19-42.2-47.67-75.51-47.67-46.57,0-84.25,38.08-83.6,84.8.64,46.21,39.26,83.41,85.46,82.4Z"/>
  <path class="cls-1" d="M912.78,429c0-46.57-38.08-84.25-84.8-83.6-46.21.64-83.41,39.26-82.4,85.46.71,32.53,20,60.48,47.68,73.67,8.01,3.82,13.03,11.99,13.03,20.86h0c0,8.87-5.02,17.05-13.03,20.86-27.68,13.18-46.97,41.14-47.68,73.67-1.01,46.2,36.19,84.82,82.4,85.46,46.72.65,84.8-37.03,84.8-83.6,0-33.31-19.48-62.07-47.67-75.51-8.02-3.82-13.06-11.99-13.06-20.87h0c0-8.89,5.04-17.05,13.06-20.88,28.19-13.44,47.67-42.2,47.67-75.51Z"/>
  <path class="cls-1" d="M334.44,429c0-46.57-38.08-84.25-84.8-83.6-46.21.64-83.41,39.26-82.4,85.46.71,32.53,20,60.48,47.68,73.67,8.01,3.82,13.03,11.99,13.03,20.86h0c0,8.87-5.02,17.05-13.03,20.86-27.68,13.18-46.97,41.14-47.68,73.67-1.01,46.2,36.19,84.82,82.4,85.46,46.72.65,84.8-37.03,84.8-83.6,0-33.31-19.48-62.07-47.67-75.51-8.02-3.82-13.06-11.99-13.06-20.87h0c0-8.89,5.04-17.05,13.06-20.88,28.19-13.44,47.67-42.2,47.67-75.51Z"/>
  <path class="cls-1" d="M832.1,731c-8.84-.3-17.39.77-25.45,3.02-12.34,3.45-25.57.09-34.63-8.97l-46.12-46.12c-9.06-9.06-12.41-22.29-8.97-34.63,2.06-7.39,3.14-15.19,3.07-23.26-.39-45.37-37.49-82.47-82.86-82.87-8.07-.07-15.87,1-23.26,3.07-12.34,3.44-25.57.09-34.63-8.97l-46.12-46.12c-9.06-9.06-12.41-22.29-8.97-34.63,2.06-7.39,3.14-15.19,3.07-23.26-.4-45.37-37.5-82.47-82.86-82.86-8.07-.07-15.87,1-23.26,3.07-12.34,3.44-25.57.09-34.63-8.97l-46.12-46.12c-9.06-9.06-12.42-22.29-8.97-34.63,2.25-8.06,3.32-16.6,3.02-25.45-1.48-43.31-36.38-78.63-79.67-80.59-49.25-2.23-89.64,38.16-87.41,87.41,1.96,43.3,37.28,78.19,80.6,79.67,8.84.3,17.39-.77,25.44-3.02,12.34-3.45,25.57-.09,34.63,8.97l46.12,46.12c9.06,9.06,12.41,22.29,8.97,34.63-2.06,7.39-3.14,15.2-3.07,23.26.4,45.37,37.5,82.47,82.87,82.86,8.06.07,15.87-1,23.26-3.07,12.34-3.44,25.57-.09,34.63,8.97l46.12,46.12c9.06,9.06,12.41,22.29,8.97,34.63-2.06,7.39-3.14,15.19-3.07,23.26.39,45.37,37.5,82.47,82.86,82.86,8.07.07,15.87-1,23.26-3.07,12.34-3.44,25.57-.09,34.63,8.97l46.12,46.12c9.06,9.06,12.42,22.29,8.97,34.63-2.25,8.06-3.32,16.6-3.02,25.45,1.48,43.31,36.38,78.63,79.67,80.59,49.25,2.23,89.64-38.16,87.41-87.41-1.96-43.3-37.28-78.19-80.59-79.68Z"/>
  <path class="cls-1" d="M634.53,730.97c-32.53.71-60.48,20-73.67,47.68-3.82,8.01-11.99,13.03-20.86,13.03h0c-8.87,0-17.05-5.02-20.86-13.03-13.18-27.68-41.14-46.97-73.67-47.68-46.2-1.01-84.82,36.19-85.46,82.4s37.03,84.8,83.6,84.8c33.31,0,62.07-19.48,75.51-47.67,3.82-8.02,11.99-13.06,20.87-13.06h0c8.88,0,17.05,5.04,20.87,13.06,13.44,28.19,42.2,47.67,75.51,47.67,46.57,0,84.25-38.08,83.6-84.8-.64-46.21-39.26-83.41-85.46-82.4Z"/>
  <circle class="cls-1" cx="250.83" cy="814.56" r="83.61"/>
</svg>